<svg width="48" height="48" viewBox="0 0 48 48" fill="none" xmlns="http://www.w3.org/2000/svg">
<path d="M18.96 6.93748C15.5728 5.32029 10.8384 4.5281 4.50001 4.49998C3.90223 4.49186 3.31618 4.66617 2.82 4.99966C2.41274 5.27494 2.07937 5.64608 1.84919 6.08043C1.61902 6.51478 1.49911 6.99903 1.5 7.4906V34.3125C1.5 36.1256 2.79 37.4934 4.50001 37.4934C11.1628 37.4934 17.8463 38.1159 21.8494 41.8997C21.9041 41.9517 21.973 41.9864 22.0473 41.9996C22.1217 42.0128 22.1983 42.0039 22.2676 41.9739C22.3369 41.944 22.3959 41.8943 22.4372 41.8311C22.4785 41.7679 22.5004 41.6939 22.5 41.6184V10.0144C22.5001 9.80113 22.4545 9.59037 22.3662 9.3963C22.2779 9.20222 22.1489 9.02935 21.9881 8.88935C21.0712 8.10545 20.0526 7.44889 18.96 6.93748ZM45.18 4.99685C44.6836 4.66418 44.0975 4.49085 43.5 4.49998C37.1616 4.5281 32.4272 5.31654 29.04 6.93748C27.9475 7.44796 26.9286 8.10322 26.0109 8.8856C25.8504 9.02581 25.7218 9.19874 25.6337 9.39278C25.5455 9.58683 25.5 9.79748 25.5 10.0106V41.6165C25.5 41.6891 25.5213 41.7601 25.5615 41.8205C25.6016 41.881 25.6587 41.9282 25.7256 41.9564C25.7925 41.9845 25.8662 41.9923 25.9375 41.9787C26.0087 41.9651 26.0744 41.9308 26.1263 41.88C28.5328 39.4894 32.7563 37.4906 43.5038 37.4915C44.2994 37.4915 45.0625 37.1755 45.6251 36.6129C46.1877 36.0503 46.5038 35.2872 46.5038 34.4915V7.49154C46.5049 6.999 46.3847 6.51377 46.1538 6.07869C45.9229 5.6436 45.5885 5.27206 45.18 4.99685Z" fill="#208003"/>
</svg>
