<svg width="48" height="48" viewBox="0 0 48 48" fill="none" xmlns="http://www.w3.org/2000/svg">
<g clip-path="url(#clip0_28_125)">
<path fill-rule="evenodd" clip-rule="evenodd" d="M18.4629 17.9726L23.2766 13.6183C24.3837 12.6188 25.6949 11.8721 27.1193 11.4298C28.5437 10.9876 30.0473 10.8604 31.5257 11.0571L37.896 11.9006L46.7349 7.12457C46.8655 7.05389 47.0122 7.01834 47.1607 7.02143C47.3091 7.02451 47.4542 7.06611 47.5818 7.14216C47.7094 7.21821 47.815 7.32609 47.8883 7.45523C47.9616 7.58438 48.0001 7.73036 48 7.87886V24.1234C47.9999 24.6685 47.8698 25.2057 47.6206 25.6905C47.3714 26.1753 47.0101 26.5936 46.5669 26.9109L40.6149 31.1657L34.1691 25.7623C35.4264 25.3103 36.5606 24.5706 37.4811 23.6023C37.6768 23.3997 37.8306 23.1605 37.9338 22.8985C38.037 22.6364 38.0876 22.3566 38.0826 22.075C38.0777 21.7934 38.0174 21.5155 37.905 21.2572C37.7927 20.999 37.6306 20.7653 37.428 20.5697C37.2254 20.3741 36.9862 20.2203 36.7242 20.1171C36.4621 20.0139 36.1823 19.9633 35.9007 19.9682C35.6191 19.9732 35.3412 20.0335 35.083 20.1458C34.8247 20.2582 34.5911 20.4202 34.3954 20.6229C33.7646 21.288 33.0194 21.7063 32.16 21.8777C31.4091 22.0251 30.4526 22.0011 29.2491 21.6309L27.72 20.3451L23.4514 23.8046C22.6727 24.4212 21.6854 24.7122 20.6967 24.6163C19.7081 24.5203 18.7951 24.0451 18.1494 23.2903C17.5037 22.5354 17.1757 21.5598 17.2341 20.5682C17.2926 19.5767 17.733 18.6463 18.4629 17.9726ZM15.5897 14.7909L19.0457 11.6674C17.5593 11.266 16.0034 11.1923 14.4857 11.4514L8.19429 12.5417L1.28914 8.82514C1.15582 8.75327 1.00611 8.71727 0.854688 8.72067C0.703264 8.72406 0.555319 8.76674 0.42535 8.84451C0.295381 8.92229 0.187846 9.03249 0.113282 9.16433C0.0387183 9.29616 -0.000316728 9.44511 1.93552e-06 9.59657V24.12C1.93552e-06 25.2789 0.572573 26.3623 1.52914 27.0137L20.232 39.7646C21.4137 40.5716 22.8146 40.9968 24.2455 40.9827C25.6765 40.9686 27.0687 40.5159 28.2343 39.6857L36.8263 33.5863L27.672 25.9063L26.1463 27.1337C24.5002 28.4567 22.4037 29.0868 20.301 28.8906C18.1982 28.6944 16.2545 27.6872 14.8816 26.0825C13.5087 24.4778 12.8145 22.4017 12.946 20.2939C13.0776 18.1862 14.0279 16.2124 15.5897 14.7909Z" fill="#208003"/>
</g>
<defs>
<clipPath id="clip0_28_125">
<rect width="48" height="48" fill="white"/>
</clipPath>
</defs>
</svg>
