<svg width="54" height="48" viewBox="0 0 54 48" fill="none" xmlns="http://www.w3.org/2000/svg">
<g clip-path="url(#clip0_30_171)">
<path d="M52.5001 21H49.7345C48.9095 19.125 47.7095 17.4656 46.2282 16.0781L48.0001 9H45.0001C42.2438 9 39.8063 10.2656 38.1563 12.2156C37.4438 12.1125 36.7407 12 36.0001 12H24.0001C16.7438 12 10.697 17.1562 9.30008 24H5.25008C3.86258 24 2.76571 22.7344 3.04696 21.3C3.25321 20.2312 4.25633 19.5 5.34383 19.5H5.43758C5.74696 19.5 6.00008 19.2469 6.00008 18.9375V17.0625C6.00008 16.7531 5.74696 16.5 5.43758 16.5C2.76571 16.5 0.384459 18.4125 0.0469588 21.0563C-0.365541 24.2625 2.12821 27 5.25008 27H9.00008C9.00008 31.8937 11.3813 36.1969 15.0001 38.9344V46.5C15.0001 47.325 15.6751 48 16.5001 48H22.5001C23.3251 48 24.0001 47.325 24.0001 46.5V42H36.0001V46.5C36.0001 47.325 36.6751 48 37.5001 48H43.5001C44.3251 48 45.0001 47.325 45.0001 46.5V38.9344C46.1063 38.1 47.0907 37.1156 47.9345 36H52.5001C53.3251 36 54.0001 35.325 54.0001 34.5V22.5C54.0001 21.675 53.3251 21 52.5001 21ZM40.5001 27C39.6751 27 39.0001 26.325 39.0001 25.5C39.0001 24.675 39.6751 24 40.5001 24C41.3251 24 42.0001 24.675 42.0001 25.5C42.0001 26.325 41.3251 27 40.5001 27ZM24.0001 9H36.0001C36.5063 9 37.0032 9.0375 37.4907 9.075C37.4907 9.04688 37.5001 9.02812 37.5001 9C37.5001 4.03125 33.4688 0 28.5001 0C23.5313 0 19.5001 4.03125 19.5001 9C19.5001 9.19687 19.547 9.38437 19.5563 9.58125C20.9813 9.21562 22.4626 9 24.0001 9Z" fill="#208003"/>
</g>
<defs>
<clipPath id="clip0_30_171">
<rect width="54" height="48" fill="white"/>
</clipPath>
</defs>
</svg>
