<svg width="22" height="22" viewBox="0 0 22 22" fill="none" xmlns="http://www.w3.org/2000/svg">
<path fill-rule="evenodd" clip-rule="evenodd" d="M18.5827 0.153681C19.038 -0.0122466 19.5313 -0.0447439 20.0045 0.060008C20.4777 0.16476 20.9111 0.402408 21.2539 0.745022C21.5967 1.08764 21.8345 1.52098 21.9395 1.99412C22.0445 2.46726 22.0122 2.96053 21.8465 3.41597L16.2302 20.2491C16.0936 20.6628 15.8531 21.0344 15.5317 21.3285C15.2104 21.6227 14.8189 21.8294 14.3948 21.929C13.9717 22.0319 13.5291 22.0231 13.1104 21.9035C12.6917 21.784 12.3112 21.5577 12.0062 21.247L8.99223 18.2471L5.82737 19.8845C5.70606 19.9474 5.57043 19.9776 5.43388 19.9721C5.29733 19.9666 5.16459 19.9255 5.04875 19.853C4.93292 19.7805 4.838 19.679 4.77338 19.5586C4.70875 19.4382 4.67664 19.303 4.68023 19.1664L4.81066 14.163L15.8814 6.12197C15.9858 6.04613 16.0743 5.95047 16.1417 5.84044C16.2092 5.73041 16.2543 5.60818 16.2745 5.48072C16.2947 5.35326 16.2896 5.22306 16.2595 5.09757C16.2294 4.97208 16.1749 4.85374 16.099 4.74932C16.0232 4.6449 15.9275 4.55644 15.8175 4.489C15.7075 4.42155 15.5852 4.37643 15.4578 4.35622C15.3303 4.33601 15.2001 4.3411 15.0746 4.37121C14.9491 4.40131 14.8308 4.45584 14.7264 4.53168L3.46866 12.7094L0.750087 9.99082C0.457099 9.69775 0.241092 9.33681 0.121285 8.9401C0.00147697 8.54339 -0.018417 8.12322 0.0633726 7.71697C0.145609 7.27282 0.344538 6.85855 0.639746 6.51667C0.934954 6.1748 1.31581 5.91762 1.74323 5.77154H1.74794L18.5811 0.152109L18.5827 0.153681Z" fill="#FDFDFD"/>
</svg>
