<svg width="48" height="48" viewBox="0 0 48 48" fill="none" xmlns="http://www.w3.org/2000/svg">
<path d="M21.55 20.8L9.04996 15.4C8.24996 15.0333 7.75862 14.4413 7.57596 13.624C7.39329 12.8067 7.61796 12.082 8.24996 11.45L9.04996 10.65C9.31662 10.3833 9.64196 10.1833 10.026 10.05C10.41 9.91667 10.8013 9.88333 11.2 9.95L29.2 13.15L35.4 6.9C36.1666 6.13333 37.1086 5.75 38.226 5.75C39.3433 5.75 40.2846 6.13333 41.05 6.9C41.8153 7.66667 42.1986 8.60867 42.2 9.726C42.2013 10.8433 41.818 11.7847 41.05 12.55L34.85 18.8L38 36.75C38.0666 37.15 38.0413 37.55 37.924 37.95C37.8066 38.35 37.6153 38.6833 37.35 38.95L36.55 39.7C35.9166 40.3333 35.1833 40.5667 34.35 40.4C33.5166 40.2333 32.9166 39.75 32.55 38.95L27.2 26.45L22.1 31.5L23.2 37.7C23.2666 38.0333 23.25 38.3587 23.15 38.676C23.05 38.9933 22.8833 39.268 22.65 39.5L21.8 40.35C21.3333 40.8167 20.7586 41 20.076 40.9C19.3933 40.8 18.8846 40.45 18.55 39.85L14.9 33.1L8.14996 29.45C7.54996 29.1167 7.19996 28.6087 7.09996 27.926C6.99996 27.2433 7.18329 26.668 7.64996 26.2L8.49996 25.35C8.73329 25.1167 9.00862 24.95 9.32596 24.85C9.64329 24.75 9.96796 24.7333 10.3 24.8L16.45 25.85L21.55 20.8Z" fill="#208003"/>
</svg>
